<mxfile host="app.diagrams.net" modified="2023-08-04T08:38:45.241Z" agent="Mozilla/5.0 (Macintosh; Intel Mac OS X 10_15_7) AppleWebKit/537.36 (KHTML, like Gecko) Chrome/103.0.0.0 Safari/537.36" etag="oSaJ8AsBL4zuWxheCR9P" version="21.6.6" type="github">
  <diagram id="C5RBs43oDa-KdzZeNtuy" name="Page-1">
    <mxGraphModel dx="1194" dy="533" grid="1" gridSize="10" guides="1" tooltips="1" connect="1" arrows="1" fold="1" page="1" pageScale="1" pageWidth="827" pageHeight="1169" math="0" shadow="0">
      <root>
        <mxCell id="WIyWlLk6GJQsqaUBKTNV-0" />
        <mxCell id="WIyWlLk6GJQsqaUBKTNV-1" parent="WIyWlLk6GJQsqaUBKTNV-0" />
        <mxCell id="EK0wY1UbsbaqYq5Uubj7-7" value="" style="edgeStyle=orthogonalEdgeStyle;rounded=0;orthogonalLoop=1;jettySize=auto;html=1;" parent="WIyWlLk6GJQsqaUBKTNV-1" source="WIyWlLk6GJQsqaUBKTNV-3" target="EK0wY1UbsbaqYq5Uubj7-0" edge="1">
          <mxGeometry relative="1" as="geometry" />
        </mxCell>
        <mxCell id="WIyWlLk6GJQsqaUBKTNV-3" value="开始" style="rounded=1;whiteSpace=wrap;html=1;fontSize=12;glass=0;strokeWidth=1;shadow=0;" parent="WIyWlLk6GJQsqaUBKTNV-1" vertex="1">
          <mxGeometry x="185" y="50" width="70" height="30" as="geometry" />
        </mxCell>
        <mxCell id="EK0wY1UbsbaqYq5Uubj7-6" style="edgeStyle=orthogonalEdgeStyle;rounded=0;orthogonalLoop=1;jettySize=auto;html=1;exitX=0.5;exitY=1;exitDx=0;exitDy=0;entryX=0.5;entryY=0;entryDx=0;entryDy=0;" parent="WIyWlLk6GJQsqaUBKTNV-1" source="WIyWlLk6GJQsqaUBKTNV-6" target="EK0wY1UbsbaqYq5Uubj7-3" edge="1">
          <mxGeometry relative="1" as="geometry" />
        </mxCell>
        <mxCell id="EK0wY1UbsbaqYq5Uubj7-10" value="是" style="edgeLabel;html=1;align=center;verticalAlign=middle;resizable=0;points=[];" parent="EK0wY1UbsbaqYq5Uubj7-6" vertex="1" connectable="0">
          <mxGeometry x="-0.2" y="-4" relative="1" as="geometry">
            <mxPoint as="offset" />
          </mxGeometry>
        </mxCell>
        <mxCell id="EK0wY1UbsbaqYq5Uubj7-8" value="" style="edgeStyle=orthogonalEdgeStyle;rounded=0;orthogonalLoop=1;jettySize=auto;html=1;" parent="WIyWlLk6GJQsqaUBKTNV-1" source="WIyWlLk6GJQsqaUBKTNV-6" target="WIyWlLk6GJQsqaUBKTNV-7" edge="1">
          <mxGeometry relative="1" as="geometry" />
        </mxCell>
        <mxCell id="EK0wY1UbsbaqYq5Uubj7-9" value="否" style="edgeLabel;html=1;align=center;verticalAlign=middle;resizable=0;points=[];" parent="EK0wY1UbsbaqYq5Uubj7-8" vertex="1" connectable="0">
          <mxGeometry x="-0.3153" y="-2" relative="1" as="geometry">
            <mxPoint as="offset" />
          </mxGeometry>
        </mxCell>
        <mxCell id="WIyWlLk6GJQsqaUBKTNV-6" value="&lt;b&gt;&lt;i&gt;product=&lt;br&gt;oppo/vivo&lt;/i&gt;&lt;/b&gt;" style="rhombus;whiteSpace=wrap;html=1;shadow=0;fontFamily=Helvetica;fontSize=12;align=center;strokeWidth=1;spacing=6;spacingTop=-4;" parent="WIyWlLk6GJQsqaUBKTNV-1" vertex="1">
          <mxGeometry x="170" y="150" width="100" height="80" as="geometry" />
        </mxCell>
        <mxCell id="EK0wY1UbsbaqYq5Uubj7-11" style="edgeStyle=orthogonalEdgeStyle;rounded=0;orthogonalLoop=1;jettySize=auto;html=1;entryX=0.5;entryY=0;entryDx=0;entryDy=0;" parent="WIyWlLk6GJQsqaUBKTNV-1" edge="1">
          <mxGeometry relative="1" as="geometry">
            <mxPoint x="222.5" y="741.25" as="targetPoint" />
            <mxPoint x="550" y="220" as="sourcePoint" />
            <Array as="points">
              <mxPoint x="470" y="711.25" />
              <mxPoint x="223" y="711.25" />
              <mxPoint x="223" y="731.25" />
            </Array>
          </mxGeometry>
        </mxCell>
        <mxCell id="WIyWlLk6GJQsqaUBKTNV-7" value="调用之前的sugService.GetAds()方法" style="rounded=1;whiteSpace=wrap;html=1;fontSize=12;glass=0;strokeWidth=1;shadow=0;" parent="WIyWlLk6GJQsqaUBKTNV-1" vertex="1">
          <mxGeometry x="480" y="161.25" width="130" height="57.5" as="geometry" />
        </mxCell>
        <mxCell id="WIyWlLk6GJQsqaUBKTNV-9" value="Yes" style="edgeStyle=orthogonalEdgeStyle;rounded=0;html=1;jettySize=auto;orthogonalLoop=1;fontSize=11;endArrow=block;endFill=0;endSize=8;strokeWidth=1;shadow=0;labelBackgroundColor=none;" parent="WIyWlLk6GJQsqaUBKTNV-1" edge="1">
          <mxGeometry y="10" relative="1" as="geometry">
            <mxPoint as="offset" />
            <mxPoint x="270" y="330" as="sourcePoint" />
          </mxGeometry>
        </mxCell>
        <mxCell id="WIyWlLk6GJQsqaUBKTNV-11" value="后处理" style="rounded=1;whiteSpace=wrap;html=1;fontSize=12;glass=0;strokeWidth=1;shadow=0;" parent="WIyWlLk6GJQsqaUBKTNV-1" vertex="1">
          <mxGeometry x="162.5" y="740" width="120" height="40" as="geometry" />
        </mxCell>
        <mxCell id="EK0wY1UbsbaqYq5Uubj7-1" value="" style="edgeStyle=orthogonalEdgeStyle;rounded=0;orthogonalLoop=1;jettySize=auto;html=1;" parent="WIyWlLk6GJQsqaUBKTNV-1" source="EK0wY1UbsbaqYq5Uubj7-0" target="WIyWlLk6GJQsqaUBKTNV-6" edge="1">
          <mxGeometry relative="1" as="geometry" />
        </mxCell>
        <mxCell id="EK0wY1UbsbaqYq5Uubj7-0" value="前处理" style="rounded=1;whiteSpace=wrap;html=1;fontSize=12;glass=0;strokeWidth=1;shadow=0;" parent="WIyWlLk6GJQsqaUBKTNV-1" vertex="1">
          <mxGeometry x="185" y="100" width="70" height="30" as="geometry" />
        </mxCell>
        <mxCell id="EK0wY1UbsbaqYq5Uubj7-12" style="edgeStyle=orthogonalEdgeStyle;rounded=0;orthogonalLoop=1;jettySize=auto;html=1;exitX=0.5;exitY=1;exitDx=0;exitDy=0;" parent="WIyWlLk6GJQsqaUBKTNV-1" source="EK0wY1UbsbaqYq5Uubj7-3" edge="1">
          <mxGeometry relative="1" as="geometry">
            <mxPoint x="220" y="360" as="targetPoint" />
          </mxGeometry>
        </mxCell>
        <mxCell id="EK0wY1UbsbaqYq5Uubj7-14" style="edgeStyle=orthogonalEdgeStyle;rounded=0;orthogonalLoop=1;jettySize=auto;html=1;" parent="WIyWlLk6GJQsqaUBKTNV-1" source="EK0wY1UbsbaqYq5Uubj7-3" edge="1">
          <mxGeometry relative="1" as="geometry">
            <mxPoint x="350" y="360" as="targetPoint" />
            <Array as="points">
              <mxPoint x="220" y="330" />
              <mxPoint x="350" y="330" />
              <mxPoint x="350" y="360" />
            </Array>
          </mxGeometry>
        </mxCell>
        <mxCell id="EK0wY1UbsbaqYq5Uubj7-19" style="edgeStyle=orthogonalEdgeStyle;rounded=0;orthogonalLoop=1;jettySize=auto;html=1;" parent="WIyWlLk6GJQsqaUBKTNV-1" source="EK0wY1UbsbaqYq5Uubj7-3" target="EK0wY1UbsbaqYq5Uubj7-15" edge="1">
          <mxGeometry relative="1" as="geometry">
            <Array as="points">
              <mxPoint x="220" y="330" />
              <mxPoint x="90" y="330" />
            </Array>
          </mxGeometry>
        </mxCell>
        <mxCell id="maYp8aYVbwoJodFECv4R-1" style="edgeStyle=orthogonalEdgeStyle;rounded=0;orthogonalLoop=1;jettySize=auto;html=1;" edge="1" parent="WIyWlLk6GJQsqaUBKTNV-1" source="EK0wY1UbsbaqYq5Uubj7-3" target="maYp8aYVbwoJodFECv4R-0">
          <mxGeometry relative="1" as="geometry">
            <Array as="points">
              <mxPoint x="220" y="330" />
              <mxPoint x="485" y="330" />
            </Array>
          </mxGeometry>
        </mxCell>
        <mxCell id="EK0wY1UbsbaqYq5Uubj7-3" value="&lt;b&gt;&lt;i&gt;&lt;u&gt;调用新的GetAds()方法&lt;/u&gt;&lt;/i&gt;&lt;/b&gt;" style="rounded=1;whiteSpace=wrap;html=1;fontSize=12;glass=0;strokeWidth=1;shadow=0;" parent="WIyWlLk6GJQsqaUBKTNV-1" vertex="1">
          <mxGeometry x="162.5" y="260" width="115" height="40" as="geometry" />
        </mxCell>
        <mxCell id="EK0wY1UbsbaqYq5Uubj7-23" style="edgeStyle=orthogonalEdgeStyle;rounded=0;orthogonalLoop=1;jettySize=auto;html=1;" parent="WIyWlLk6GJQsqaUBKTNV-1" source="EK0wY1UbsbaqYq5Uubj7-15" edge="1">
          <mxGeometry relative="1" as="geometry">
            <mxPoint x="220" y="450" as="targetPoint" />
            <Array as="points">
              <mxPoint x="90" y="430" />
              <mxPoint x="220" y="430" />
            </Array>
          </mxGeometry>
        </mxCell>
        <mxCell id="EK0wY1UbsbaqYq5Uubj7-15" value="&lt;u&gt;&lt;b&gt;&lt;i&gt;参照mediago，请求novabeyond，触发&lt;/i&gt;&lt;/b&gt;&lt;b style=&quot;border-color: var(--border-color);&quot;&gt;&lt;i style=&quot;border-color: var(--border-color);&quot;&gt;nurl&lt;/i&gt;&lt;/b&gt;&lt;/u&gt;" style="rounded=1;whiteSpace=wrap;html=1;fontSize=12;glass=0;strokeWidth=1;shadow=0;" parent="WIyWlLk6GJQsqaUBKTNV-1" vertex="1">
          <mxGeometry x="40" y="360" width="100" height="50" as="geometry" />
        </mxCell>
        <mxCell id="EK0wY1UbsbaqYq5Uubj7-22" style="edgeStyle=orthogonalEdgeStyle;rounded=0;orthogonalLoop=1;jettySize=auto;html=1;" parent="WIyWlLk6GJQsqaUBKTNV-1" source="EK0wY1UbsbaqYq5Uubj7-16" edge="1">
          <mxGeometry relative="1" as="geometry">
            <mxPoint x="220" y="450" as="targetPoint" />
          </mxGeometry>
        </mxCell>
        <mxCell id="EK0wY1UbsbaqYq5Uubj7-16" value="调用MediaGo的GetAds方法，&lt;u&gt;&lt;b style=&quot;border-color: var(--border-color);&quot;&gt;&lt;i style=&quot;border-color: var(--border-color);&quot;&gt;触发&lt;/i&gt;&lt;/b&gt;&lt;b style=&quot;border-color: var(--border-color);&quot;&gt;&lt;i style=&quot;border-color: var(--border-color);&quot;&gt;nurl&lt;/i&gt;&lt;/b&gt;&lt;/u&gt;" style="rounded=1;whiteSpace=wrap;html=1;fontSize=12;glass=0;strokeWidth=1;shadow=0;" parent="WIyWlLk6GJQsqaUBKTNV-1" vertex="1">
          <mxGeometry x="165" y="360" width="110" height="50" as="geometry" />
        </mxCell>
        <mxCell id="EK0wY1UbsbaqYq5Uubj7-24" style="edgeStyle=orthogonalEdgeStyle;rounded=0;orthogonalLoop=1;jettySize=auto;html=1;" parent="WIyWlLk6GJQsqaUBKTNV-1" source="EK0wY1UbsbaqYq5Uubj7-18" edge="1">
          <mxGeometry relative="1" as="geometry">
            <mxPoint x="220" y="450" as="targetPoint" />
            <Array as="points">
              <mxPoint x="355" y="430" />
              <mxPoint x="221" y="430" />
            </Array>
          </mxGeometry>
        </mxCell>
        <mxCell id="EK0wY1UbsbaqYq5Uubj7-18" value="调用sf的GetAds方法，&lt;u&gt;&lt;b style=&quot;border-color: var(--border-color);&quot;&gt;&lt;i style=&quot;border-color: var(--border-color);&quot;&gt;触发&lt;/i&gt;&lt;/b&gt;&lt;b style=&quot;border-color: var(--border-color);&quot;&gt;&lt;i style=&quot;border-color: var(--border-color);&quot;&gt;nurl&lt;/i&gt;&lt;/b&gt;&lt;/u&gt;" style="rounded=1;whiteSpace=wrap;html=1;fontSize=12;glass=0;strokeWidth=1;shadow=0;" parent="WIyWlLk6GJQsqaUBKTNV-1" vertex="1">
          <mxGeometry x="300" y="360" width="110" height="50" as="geometry" />
        </mxCell>
        <mxCell id="EK0wY1UbsbaqYq5Uubj7-29" style="edgeStyle=orthogonalEdgeStyle;rounded=0;orthogonalLoop=1;jettySize=auto;html=1;entryX=0.5;entryY=0;entryDx=0;entryDy=0;" parent="WIyWlLk6GJQsqaUBKTNV-1" source="EK0wY1UbsbaqYq5Uubj7-25" target="EK0wY1UbsbaqYq5Uubj7-30" edge="1">
          <mxGeometry relative="1" as="geometry">
            <mxPoint x="222.5" y="530" as="targetPoint" />
          </mxGeometry>
        </mxCell>
        <mxCell id="EK0wY1UbsbaqYq5Uubj7-25" value="&lt;b&gt;&lt;i&gt;&lt;u&gt;聚合，使用pid获取广告素材要求，过滤不符合素材要求的广告&lt;/u&gt;&lt;/i&gt;&lt;/b&gt;" style="rounded=1;whiteSpace=wrap;html=1;fontSize=12;glass=0;strokeWidth=1;shadow=0;" parent="WIyWlLk6GJQsqaUBKTNV-1" vertex="1">
          <mxGeometry x="166.25" y="450" width="112.5" height="60" as="geometry" />
        </mxCell>
        <mxCell id="EK0wY1UbsbaqYq5Uubj7-28" style="edgeStyle=orthogonalEdgeStyle;rounded=0;orthogonalLoop=1;jettySize=auto;html=1;exitX=0.5;exitY=1;exitDx=0;exitDy=0;" parent="WIyWlLk6GJQsqaUBKTNV-1" source="EK0wY1UbsbaqYq5Uubj7-27" edge="1">
          <mxGeometry relative="1" as="geometry">
            <mxPoint x="766.25" y="240" as="sourcePoint" />
            <mxPoint x="280" y="480" as="targetPoint" />
            <Array as="points">
              <mxPoint x="725" y="480" />
            </Array>
          </mxGeometry>
        </mxCell>
        <mxCell id="EK0wY1UbsbaqYq5Uubj7-27" value="&lt;b&gt;&lt;i&gt;&lt;u&gt;定时加载pid素材规则至内存&lt;/u&gt;&lt;/i&gt;&lt;/b&gt;" style="rounded=1;whiteSpace=wrap;html=1;fontSize=12;glass=0;strokeWidth=1;shadow=0;" parent="WIyWlLk6GJQsqaUBKTNV-1" vertex="1">
          <mxGeometry x="670" y="161.25" width="110" height="58.75" as="geometry" />
        </mxCell>
        <mxCell id="EK0wY1UbsbaqYq5Uubj7-31" style="edgeStyle=orthogonalEdgeStyle;rounded=0;orthogonalLoop=1;jettySize=auto;html=1;entryX=0.5;entryY=0;entryDx=0;entryDy=0;" parent="WIyWlLk6GJQsqaUBKTNV-1" source="EK0wY1UbsbaqYq5Uubj7-30" target="EK0wY1UbsbaqYq5Uubj7-32" edge="1">
          <mxGeometry relative="1" as="geometry">
            <mxPoint x="222.5" y="610" as="targetPoint" />
          </mxGeometry>
        </mxCell>
        <mxCell id="EK0wY1UbsbaqYq5Uubj7-30" value="&lt;b&gt;&lt;i&gt;&lt;u&gt;按cpm(自有按ecpm)排序，取topN&lt;/u&gt;&lt;/i&gt;&lt;/b&gt;" style="rounded=1;whiteSpace=wrap;html=1;fontSize=12;glass=0;strokeWidth=1;shadow=0;" parent="WIyWlLk6GJQsqaUBKTNV-1" vertex="1">
          <mxGeometry x="167.5" y="550" width="110" height="50" as="geometry" />
        </mxCell>
        <mxCell id="EK0wY1UbsbaqYq5Uubj7-33" style="edgeStyle=orthogonalEdgeStyle;rounded=0;orthogonalLoop=1;jettySize=auto;html=1;entryX=0.5;entryY=0;entryDx=0;entryDy=0;" parent="WIyWlLk6GJQsqaUBKTNV-1" source="EK0wY1UbsbaqYq5Uubj7-32" target="WIyWlLk6GJQsqaUBKTNV-11" edge="1">
          <mxGeometry relative="1" as="geometry" />
        </mxCell>
        <mxCell id="EK0wY1UbsbaqYq5Uubj7-32" value="&lt;b&gt;&lt;i&gt;&lt;u&gt;替换impurl，替换burl,触发&lt;/u&gt;&lt;/i&gt;&lt;/b&gt;" style="rounded=1;whiteSpace=wrap;html=1;fontSize=12;glass=0;strokeWidth=1;shadow=0;" parent="WIyWlLk6GJQsqaUBKTNV-1" vertex="1">
          <mxGeometry x="167.5" y="640" width="110" height="50" as="geometry" />
        </mxCell>
        <mxCell id="maYp8aYVbwoJodFECv4R-2" style="edgeStyle=orthogonalEdgeStyle;rounded=0;orthogonalLoop=1;jettySize=auto;html=1;entryX=0.5;entryY=0;entryDx=0;entryDy=0;" edge="1" parent="WIyWlLk6GJQsqaUBKTNV-1" source="maYp8aYVbwoJodFECv4R-0" target="EK0wY1UbsbaqYq5Uubj7-25">
          <mxGeometry relative="1" as="geometry">
            <Array as="points">
              <mxPoint x="485" y="430" />
              <mxPoint x="223" y="430" />
            </Array>
          </mxGeometry>
        </mxCell>
        <mxCell id="maYp8aYVbwoJodFECv4R-0" value="调用ace的GetAds方法，&lt;u&gt;&lt;b style=&quot;border-color: var(--border-color);&quot;&gt;&lt;i style=&quot;border-color: var(--border-color);&quot;&gt;触发&lt;/i&gt;&lt;/b&gt;&lt;b style=&quot;border-color: var(--border-color);&quot;&gt;&lt;i style=&quot;border-color: var(--border-color);&quot;&gt;nurl&lt;/i&gt;&lt;/b&gt;&lt;/u&gt;" style="rounded=1;whiteSpace=wrap;html=1;fontSize=12;glass=0;strokeWidth=1;shadow=0;" vertex="1" parent="WIyWlLk6GJQsqaUBKTNV-1">
          <mxGeometry x="430" y="360" width="110" height="50" as="geometry" />
        </mxCell>
      </root>
    </mxGraphModel>
  </diagram>
</mxfile>
